<svg xmlns="http://www.w3.org/2000/svg" width="48" height="48"><defs><style>.a{fill:none;stroke:#f05a22;stroke-linecap:round;stroke-linejoin:round;stroke-miterlimit:10;stroke-width:4px}</style></defs><path class="a" d="M14,11.6a4,4,0,1,0-8,0" transform="translate(6 7.6)"/><path class="a" d="M22,11.6a4,4,0,1,0-8,0" transform="translate(14 7.6)"/><path class="a" d="M1,45V7A5.893,5.893,0,0,1,7,1H39a5.893,5.893,0,0,1,6,6V39a5.893,5.893,0,0,1-6,6Z" transform="translate(1 1)"/><path class="a" d="M27,18.124l-1.4-1a16.272,16.272,0,0,0-18.6,1H7" transform="translate(7 14.676)"/></svg>