<svg xmlns="http://www.w3.org/2000/svg" width="1603" height="486"><defs><radialGradient id="b" cx=".136" cy="0" r="2.178" gradientTransform="matrix(.167 .459 -.986 .078 .113 -.062)" gradientUnits="objectBoundingBox"><stop offset="0" stop-color="#4a4a4a" stop-opacity=".502"/><stop offset="1" stop-color="#231f20" stop-opacity=".502"/></radialGradient><clipPath id="a"><rect width="1603" height="486" transform="translate(-3 100)" stroke="#707070" fill="#231f20"/></clipPath><style>.c{fill:#231f20}.d{fill:url(#b)}</style></defs><g transform="translate(3 -100)" clip-path="url(#a)"><path class="c" d="M345.184,220.526H429.43A337.977,337.977,0,0,1,666.862,317.54a329.14,329.14,0,0,1,98.355,234.307V1757.52a105.783,105.783,0,0,1-31.6,75.3A108.623,108.623,0,0,1,657.323,1864H365.728a368.2,368.2,0,0,1-258.609-105.719A358.572,358.572,0,0,1,0,1503.057V561.2C0,373.05,154.544,220.526,345.184,220.526Z" transform="translate(0 24.164)"/><path class="d" d="M345.184,220.526H429.43A337.977,337.977,0,0,1,666.862,317.54a329.14,329.14,0,0,1,98.355,234.307V1757.52a105.783,105.783,0,0,1-31.6,75.3A108.623,108.623,0,0,1,657.323,1864H365.728a368.2,368.2,0,0,1-258.609-105.719A358.572,358.572,0,0,1,0,1503.057V561.2C0,373.05,154.544,220.526,345.184,220.526Z" transform="translate(0 24.164)"/><g><path class="c" d="M480.028,0h84.246A337.978,337.978,0,0,1,801.706,97.014,329.14,329.14,0,0,1,900.061,331.32V1536.994a105.784,105.784,0,0,1-31.6,75.3,108.623,108.623,0,0,1-76.293,31.189H500.572a368.2,368.2,0,0,1-258.609-105.719,358.572,358.572,0,0,1-107.119-255.229V340.672C134.844,152.524,289.388,0,480.028,0Z" transform="translate(699.939 -1120.527)"/><path class="d" d="M480.028,0h84.246A337.978,337.978,0,0,1,801.706,97.014,329.14,329.14,0,0,1,900.061,331.32V1536.994a105.784,105.784,0,0,1-31.6,75.3,108.623,108.623,0,0,1-76.293,31.189H500.572a368.2,368.2,0,0,1-258.609-105.719,358.572,358.572,0,0,1-107.119-255.229V340.672C134.844,152.524,289.388,0,480.028,0Z" transform="translate(699.939 -1120.527)"/></g></g></svg>