<svg xmlns="http://www.w3.org/2000/svg" width="128" height="42.623"><defs><style>.a{fill:#f05a22}</style></defs><path class="a" d="M10.287,4.745V20.857a.609.609,0,0,1-.5.6C7.735,21.849,0,22.886,0,16.353V4.819c0-6.343,10.287-6.485,10.287-.074" transform="translate(0 .001)"/><path class="a" d="M59.81,43.84V59.956a.609.609,0,0,1-.5.6c-2.055.389-9.793,1.427-9.793-5.107V43.914c0-6.34,10.29-6.482,10.29-.074" transform="translate(-35.448 -27.986)"/><path class="a" d="M109.35,78.15V94.266a.609.609,0,0,1-.5.6c-2.055.389-9.793,1.427-9.793-5.107V78.224c0-6.34,10.29-6.482,10.29-.074" transform="translate(-70.91 -52.546)"/><path d="M185.438,21.374l6.905,7.545h-2.492l-6.243-6.925v6.925H181.67V14h1.938v6.968L189.871,14h2.472Z" transform="translate(-130.044 -10.021)"/><path d="M220.58,36.208a5.115,5.115,0,1,1,10.23,0,5.115,5.115,0,1,1-10.23,0Zm8.377,0a3.28,3.28,0,1,0-6.542,0,3.278,3.278,0,1,0,6.542,0Z" transform="translate(-157.897 -22.212)"/><path d="M265.16,31.286h1.853V33.1a3.487,3.487,0,0,1,3.43-2.066c2.407,0,3.646,1.407,3.646,4.027V41.11h-1.833V35.867c0-2.194-.725-3.24-2.472-3.24-1.833,0-2.771,1.3-2.771,3.282v5.2H265.16Z" transform="translate(-189.809 -22.212)"/><path d="M309.257,32.253v1.64a8.36,8.36,0,0,1-1.662.151c-1.151,0-3.007-.213-3.007-3.387v-5.01H302.82V24.092h1.768V20.98h1.856v3.112h2.472v1.554h-2.472v4.6c0,1.876.639,2.131,1.577,2.131A7,7,0,0,0,309.257,32.253Z" transform="translate(-216.767 -15.018)"/><path d="M339.41,36.742H331.8a2.841,2.841,0,0,0,3.089,3,2.576,2.576,0,0,0,2.6-1.449h1.853c-.341,1.813-2.154,3.069-4.453,3.069-3.026,0-4.922-2-4.922-5.178,0-3.112,1.918-5.158,4.837-5.158a4.425,4.425,0,0,1,4.646,4.623A10.051,10.051,0,0,1,339.41,36.742Zm-1.77-1.429a2.6,2.6,0,0,0-2.856-2.791,2.784,2.784,0,0,0-2.984,2.791Z" transform="translate(-236.201 -22.212)"/><path d="M372.2,31.286h1.853V33.1a3.487,3.487,0,0,1,3.43-2.066c2.407,0,3.646,1.407,3.646,4.027V41.11H379.3V35.867c0-2.194-.725-3.24-2.472-3.24-1.833,0-2.771,1.3-2.771,3.282v5.2H372.2V31.286Z" transform="translate(-266.431 -22.212)"/><path d="M416.3,32.253v1.64a8.36,8.36,0,0,1-1.662.151c-1.151,0-3.007-.213-3.007-3.387v-5.01H409.86V24.092h1.768V20.98h1.856v3.112h2.472v1.554h-2.472v4.6c0,1.876.639,2.131,1.577,2.131A7,7,0,0,0,416.3,32.253Z" transform="translate(-293.389 -15.018)"/><path class="a" d="M439.48,57.634a1.545,1.545,0,0,1,1.535-1.554,1.556,1.556,0,1,1,0,3.112A1.548,1.548,0,0,1,439.48,57.634Z" transform="translate(-314.592 -40.143)"/><path d="M180.75,96.5h5.627a7.461,7.461,0,1,1,0,14.919H180.75Zm5.308,12.021a4.565,4.565,0,0,0,0-9.122h-1.853v9.122h1.853Z" transform="translate(-129.386 -69.077)"/><path d="M232.01,117.293c0-3.132,2.174-5.413,5.712-5.413,3.515,0,5.689,2.279,5.689,5.413s-2.174,5.413-5.689,5.413C234.184,122.707,232.01,120.425,232.01,117.293Zm8.161,0a2.458,2.458,0,1,0-2.45,2.666A2.411,2.411,0,0,0,240.171,117.293Z" transform="translate(-166.079 -80.086)"/><path d="M276.84,117.293a5.113,5.113,0,0,1,5.5-5.413c3.069,0,5.072,1.62,5.328,4.177h-3.259c-.236-.96-.853-1.407-2.046-1.407-1.407,0-2.259.938-2.259,2.643s.853,2.643,2.259,2.643c1.194,0,1.813-.426,2.046-1.321h3.259c-.256,2.5-2.259,4.092-5.328,4.092A5.114,5.114,0,0,1,276.84,117.293Z" transform="translate(-198.17 -80.086)"/><path d="M319.57,119.34h3.24c0,.7.682,1.194,1.682,1.194.7,0,1.194-.341,1.194-.938,0-.469-.236-.745-1.108-.961l-2.154-.534a2.99,2.99,0,0,1-2.577-3c0-1.941,1.748-3.217,4.391-3.217,2.9,0,4.581,1.128,4.581,3.174H325.6c0-.725-.534-1.108-1.407-1.108-.7,0-1.171.341-1.171.83,0,.469.3.767,1.131.98l2.174.6c1.62.426,2.6,1.407,2.6,2.961,0,2.131-1.768,3.387-4.5,3.387C321.508,122.707,319.57,121.343,319.57,119.34Z" transform="translate(-228.757 -80.086)"/></svg>