<svg xmlns="http://www.w3.org/2000/svg" viewBox="0 0 51.2324 44.4394"><defs><style>.cls-1{fill:#95a6b1;}.cls-2{fill:#aebcc5;}.cls-3,.cls-4{fill:#c8d3d9;}.cls-3{opacity:0.8;}</style></defs><title>codeblock-empty-state</title><g id="Layer_2" data-name="Layer 2"><g id="Layer_2-2" data-name="Layer 2"><g id="Folder"><polygon class="cls-1" points="43.086 30.883 15.129 44.439 0 16.181 23.356 1.131 30.987 16.563 36.027 16.468 43.086 30.883"/><polygon class="cls-2" points="15.129 44.439 0 16.181 24.21 9.914 39.714 41.161 15.129 44.439"/></g><polygon class="cls-3" points="42.35 1.605 36.07 0 31.712 8.975 34.143 10.444 42.35 1.605"/><polygon class="cls-3" points="48.597 4.866 36.99 11.761 38.427 14.692 51.232 10.287 48.597 4.866"/><polygon class="cls-3" points="47.826 15.472 40.875 16.723 40.808 19.111 48.014 20.715 47.826 15.472"/><polygon class="cls-4" points="13.573 25.382 10.066 30.526 16.714 33.839 17.559 32.115 13.545 29.93 15.405 26.978 13.573 25.382"/><polyline class="cls-4" points="28.662 25.431 26.243 31.298 24.385 30.409 25.829 26.683 21.576 25.24 21.767 23.217 28.662 25.431"/><path class="cls-4" d="M16.8158,21.7708c.1237.2567,2.945,13.4648,2.945,13.4648l1.7151-.0572L19.2431,21.83Z"/></g></g></svg>